<?xml version="1.0" encoding="UTF-8" standalone="no"?>
<svg
   xmlns:dc="http://purl.org/dc/elements/1.1/"
   xmlns:cc="http://creativecommons.org/ns#"
   xmlns:rdf="http://www.w3.org/1999/02/22-rdf-syntax-ns#"
   xmlns:svg="http://www.w3.org/2000/svg"
   xmlns="http://www.w3.org/2000/svg"
   width="256"
   height="256"
   version="1.1"
   viewBox="0 0 256 256"
   id="svg905">
  <defs
     id="defs909" />
  <metadata
     id="metadata833">
    <rdf:RDF>
      <cc:Work
         rdf:about="">
        <dc:format>image/svg+xml</dc:format>
        <dc:type
           rdf:resource="http://purl.org/dc/dcmitype/StillImage" />
        <dc:title></dc:title>
      </cc:Work>
    </rdf:RDF>
  </metadata>
  <g
     transform="matrix(1.4184988,0,0,1.4184988,7.3175195,37.925324)"
     id="g903">
    <g
       id="g1008">
      <rect
         ry="3.7414076"
         y="-8.3333332e-05"
         x="0"
         height="67.73333"
         width="67.73333"
         id="rect911"
         style="opacity:0.996;fill:#aa0088;stroke:none;stroke-width:1.09362;stroke-linecap:round;stroke-linejoin:round;stroke-opacity:0.752941"
         transform="matrix(2.664456,0,0,2.664456,-5.1586362,-26.736084)" />
      <path
         id="path835"
         stroke-width="2.3381"
         stroke="#f9f9f9"
         opacity="0.996"
         fill="none"
         d="M 141.22,19.878 C 124.562,30.26 77.582,36.509 68.29,22.1986 63.5582,14.9109 59.2081,0.8646 48.259,1.1826 32.997,1.62504 27.364,13.0456 25.258,21.2236 L 2.14,95.6936 c 1.7941,8.5158 4.573,14.119 7.3511,19.72 10.374,-14.692 17.095,-20.499 23.837,-20.189 5.9367,0.27351 7.6806,5.3434 11.894,10.512 17.993,25.448 95.526,24.417 113.84,9.6781 l 8.8932,-17.424 z" />
    </g>
    <g
       fill="#f9f9f9"
       stroke="#f9f9f9"
       id="g859">
      <g
         stroke-width="0.70144"
         id="g849">
        <path
           d="m 44.763,47.796 c 1.953,0.80606 3.9275,1.5775 5.922,2.3137 -3.9486,4.3883 -8.1397,8.6469 -12.569,12.756 1.7004,4.4294 3.5842,8.8426 5.648,13.227 -2.9363,-0.64938 -5.8586,-1.3652 -8.7643,-2.1476 -0.3417,-3.4598 -0.62233,-6.9152 -0.84162,-10.365 -1.6212,-0.3458 -3.2394,-0.71362 -4.8541,-1.1036 -0.79072,2.7899 -1.5779,5.5809 -2.3617,8.3726 -1.5761,-0.11894 -3.1554,-0.25788 -4.7374,-0.41716 2.6483,-8.0277 5.3038,-16.053 7.9666,-24.077 2.3837,0.7258 4.7828,1.3977 7.1948,2.0162 -0.7784,2.6148 -1.5578,5.2293 -2.338,7.8435 1.1892,0.43218 2.3839,0.85194 3.5839,1.2593 2.1191,-3.1963 4.1694,-6.4238 6.1508,-9.6799 z"
           id="path837" />
        <path
           d="m 49.778,60.494 c 0.08318,-0.20074 0.17247,-0.43288 0.26782,-0.69642 0.09622,-0.26594 0.21244,-0.58539 0.35357,-0.97281 0.14026,-0.38505 0.2946,-0.84336 0.4628,-1.375 0.19251,-0.54807 0.41764,-1.2109 0.67344,-1.9856 0.25432,-0.12429 0.59237,-0.20002 1.0146,-0.22875 0.44753,-0.04599 1.0436,-0.07519 1.7952,-0.09274 0.87491,-0.01695 1.6764,0.01176 2.408,0.08912 0.75154,0.08066 1.5099,0.17919 2.2761,0.29536 1.5136,0.22952 2.7492,0.49436 3.7188,0.81424 0.97089,0.29828 1.7327,0.63618 2.2868,1.0229 0.07956,0.20244 0.1634,0.45883 0.252,0.7694 0.09104,0.28935 0.17289,0.66334 0.24606,1.122 0.0938,0.46115 0.18808,1.0183 0.28402,1.6723 0.09596,0.65411 0.18987,1.4358 0.28344,2.3463 0.45398,4.1135 0.59997,7.3663 0.35126,9.8404 -0.10879,1.0821 -0.28387,1.9312 -0.52857,2.5496 -0.21989,0.59902 -0.57113,1.0238 -1.055,1.2726 -0.21578,0.10498 -0.7994,0.19464 -1.7457,0.2574 -0.94155,0.06246 -2.2987,0.07445 -4.0364,0.01124 -0.13376,-0.45896 -0.26623,-0.91803 -0.3974,-1.3772 -1.8836,-0.13085 -3.7673,-0.28866 -5.6505,-0.47364 -2.5799,-0.43103 -4.0333,-1.0197 -4.3658,-1.6907 -0.1562,-0.2687 -0.1613,-1.1375 -0.01227,-2.6066 0.07247,-0.72394 0.16357,-1.4228 0.2725,-2.0962 0.10892,-0.67348 0.22488,-1.3241 0.34745,-1.9515 0.18381,-0.94088 0.43504,-1.5439 0.75049,-1.8084 0.10936,-0.10922 0.29289,-0.20409 0.55044,-0.2854 0.25765,-0.08135 0.60804,-0.13449 1.0518,-0.16115 0.44413,-0.02668 0.99067,-0.02483 1.6423,0.0027 0.65261,0.02763 1.4264,0.08452 2.3299,0.16648 0.83889,0.07152 1.6201,0.14969 2.3467,0.23688 0.72825,0.06598 1.3748,0.11527 1.9329,0.15003 0.55934,0.01365 1.019,0.02076 1.3624,0.0234 0.37017,-0.01565 0.61535,-0.07031 0.7352,-0.16232 0.05169,-0.4016 0.0767,-0.76379 0.07534,-1.0862 0.01978,-0.31983 1.04e-4,-0.66609 -0.05828,-1.0391 -0.06112,-0.35178 -0.12852,-0.65074 -0.20248,-0.89693 -0.07402,-0.24635 -0.17328,-0.53854 -0.29741,-0.87784 -0.02749,-0.1112 -0.12158,-0.19898 -0.28214,-0.26369 -0.15771,-0.08584 -0.32991,-0.14161 -0.51685,-0.16743 -0.35349,-0.04882 -0.85232,-0.03263 -1.5007,0.04492 -0.62699,0.05973 -1.4235,0.16506 -2.4098,0.31094 -0.008,0.51666 -0.01541,1.0334 -0.02219,1.5502 -0.18124,0.05764 -0.41022,0.07519 -0.68652,0.05209 -0.2515,-0.04069 -0.52513,-0.08548 -0.81839,-0.13426 -0.54536,-0.09072 -1.1079,-0.2084 -1.6866,-0.35347 -0.57485,-0.16601 -1.2133,-0.40025 -1.9114,-0.70428 -0.61411,-0.28811 -1.0758,-0.53021 -1.3827,-0.72015 -0.30331,-0.21118 -0.47131,-0.34284 -0.50425,-0.39263 v 7e-6 z m 6.3954,11.543 c 0.05246,0.24525 0.27722,0.47401 0.67551,0.68446 0.40104,0.18918 1.002,0.34278 1.8001,0.45455 1.73,0.24229 2.819,0.11668 3.2584,-0.34446 0.45724,-0.41705 0.78192,-1.4497 0.98159,-3.101 0.04348,-0.35966 0.05499,-0.63748 0.0347,-0.83309 -0.02029,-0.19566 -0.05643,-0.35034 -0.10842,-0.46401 -0.07363,-0.11631 -0.18085,-0.22602 -0.32156,-0.3293 -0.13831,-0.12463 -0.44848,-0.27003 -0.9307,-0.43959 -0.37697,-0.13447 -0.75872,-0.22778 -1.1461,-0.28004 -0.36295,-0.07048 -0.7378,-0.13288 -1.1248,-0.18745 -0.6235,-0.08792 -1.1278,-0.08678 -1.5156,0.0063 -0.36303,0.07524 -0.63861,0.15164 -0.82715,0.23064 -0.12704,0.10987 -0.24907,0.32831 -0.36619,0.65523 -0.11379,0.3057 -0.21863,0.76429 -0.31377,1.3748 -0.20027,1.2852 -0.2331,2.1416 -0.09612,2.573 10e-7,-1e-6 2e-6,-1e-6 4e-6,-2e-6 z"
           id="path839" />
        <path
           d="m 68.57,60.696 c 1.953,-0.04942 3.9017,-0.12992 5.8452,-0.24107 0.17186,0.56602 0.30001,1.5249 0.38676,2.8753 0.08677,1.3507 0.15382,3.0843 0.20428,5.2011 -0.0083,2.0075 0.03707,3.5243 0.13485,4.5554 0.0977,1.0302 0.21359,1.5809 0.34422,1.6521 0.10597,0.11242 0.27035,0.18524 0.49298,0.218 0.24495,0.03389 0.52423,0.05843 0.83752,0.07315 0.6637,-0.04348 1.3268,-0.09028 1.9893,-0.14039 0.39559,-1.6059 0.70205,-3.1323 0.92507,-4.5746 0.22374,-1.4637 0.35324,-2.8363 0.39414,-4.114 0.07701,-2.4057 -0.16176,-3.9095 -0.7024,-4.5029 1.4549,-0.05368 2.9079,-0.12437 4.3587,-0.21195 1.0043,-0.06226 2.0075,-0.13261 3.0094,-0.21102 0.4148,-0.03212 0.8294,-0.06557 1.2438,-0.10032 -0.11862,0.69364 -0.23855,1.3872 -0.35978,2.0808 -0.03943,0.36261 -0.06863,0.71443 -0.08742,1.0556 -0.01894,0.31983 -0.02746,0.6289 -0.02542,0.92725 0.0025,0.36216 0.0161,0.79926 0.0411,1.3105 0.04626,0.48976 0.11456,1.0223 0.20543,1.5969 0.09089,0.57463 0.20428,1.1704 0.34075,1.787 0.15805,0.59515 0.33905,1.1792 0.54348,1.752 1.0198,-0.06624 2.0381,-0.13968 3.055,-0.22007 0.21276,-0.24002 0.4407,-0.71535 0.68085,-1.4257 0.26182,-0.71081 0.53471,-1.7002 0.81389,-2.9668 0.29956,-1.287 0.48551,-2.3099 0.56352,-3.0569 0.09853,-0.7706 0.13634,-1.4333 0.11542,-1.9864 -0.03465,-0.36104 -0.06919,-0.72207 -0.10362,-1.0831 l -0.0012,-0.03192 c 0.30022,-0.06442 0.60021,-0.12949 0.89999,-0.19519 1.2703,-0.05259 2.4095,0.2193 3.4307,0.82242 l 0.03288,0.57405 c 0.04622,0.80622 -0.10872,1.9492 -0.47692,3.4179 -0.36744,1.4657 -0.93206,3.2635 -1.7088,5.3625 -1.4336,4.0065 -2.8116,6.8514 -4.0374,8.5226 -0.38616,0.0319 -0.83793,0.07518 -1.3608,0.1291 -0.522,0.03251 -1.1601,0.03389 -1.9115,0.0012 -0.34183,-0.0168 -0.6377,-0.02429 -0.88833,-0.02195 -0.25071,-0.01898 -0.48993,-0.02781 -0.7178,-0.0264 -0.07572,-0.0074 -0.15299,-0.01483 -0.23181,-0.02229 -0.13527,-0.01301 -0.275,-0.02614 -0.41932,-0.03942 -0.22905,-0.02107 -0.50275,-0.04238 -0.82305,-0.06463 -0.18246,-0.17111 -0.34019,-0.7152 -0.47135,-1.6325 -0.06527,-0.51178 -0.11897,-0.98131 -0.16136,-1.4078 -0.01974,-0.44768 -0.07356,-0.82114 -0.16102,-1.1201 -0.24605,-0.04434 -0.48097,-0.05708 -0.70511,-0.03811 -0.20178,0.01921 -0.42603,0.04852 -0.67307,0.08776 -0.11441,0.16899 -0.24172,0.44421 -0.38277,0.82579 -0.11845,0.36132 -0.26077,0.81585 -0.42942,1.3679 -0.16729,0.48738 -0.33401,0.87864 -0.49951,1.1738 -0.16505,0.27384 -0.31788,0.47316 -0.45782,0.59797 -0.59464,0.0081 -1.2239,0.03418 -1.8889,0.07723 -0.64081,0.04368 -1.4792,0.04664 -2.5068,0.0016 -0.58758,-0.02575 -1.0811,-0.04993 -1.44,-0.0682 -0.3415,-0.03871 -0.64923,-0.07662 -0.92194,-0.11309 -0.27291,-0.03649 -0.54572,-0.07353 -0.81839,-0.11113 -0.27212,-0.03751 -0.61369,-0.09051 -1.021,-0.1595 -1.1416,-1.0754 -2.2688,-4.3787 -3.2203,-9.8909 -0.45419,-2.7552 -0.87925,-5.5115 -1.275,-8.2683 z"
           id="path841" />
        <path
           d="m 98.964,63.668 c 0.02942,-0.21511 0.05676,-0.46212 0.08201,-0.74101 0.0254,-0.28055 0.05684,-0.62054 0.09497,-1.0299 0.03794,-0.40772 0.07099,-0.88988 0.09894,-1.4463 0.04735,-0.57864 0.09735,-1.2761 0.149,-2.0898 0.21617,-0.18448 0.52657,-0.34316 0.93135,-0.47737 0.42469,-0.15714 0.99999,-0.33563 1.7299,-0.54056 0.85103,-0.23532 1.6429,-0.40693 2.379,-0.51311 0.75643,-0.10792 1.5246,-0.1992 2.3053,-0.27404 1.5422,-0.14787 2.8226,-0.1888 3.8536,-0.11026 1.0272,0.05726 1.8583,0.20544 2.4953,0.45088 0.12613,0.17802 0.26911,0.40755 0.42933,0.68866 0.15763,0.25993 0.32595,0.60436 0.5053,1.0333 0.20016,0.42642 0.42302,0.94634 0.66946,1.5601 0.24646,0.6138 0.52021,1.3526 0.82249,2.2169 1.3949,3.8936 2.2757,7.0373 2.5997,9.4987 0.14195,1.0782 0.16737,1.945 0.0745,2.6022 -0.0736,0.6329 -0.31183,1.1257 -0.71585,1.4775 -0.18188,0.15136 -0.71672,0.37037 -1.6035,0.64873 -0.88303,0.27719 -2.1703,0.60179 -3.8399,0.95059 -0.23617,-0.41411 -0.47151,-0.82852 -0.70599,-1.2431 -1.8273,0.31958 -3.6616,0.62124 -5.5029,0.90375 -2.5661,0.21495 -4.1006,0.01238 -4.5864,-0.55313 -0.21653,-0.22064 -0.43949,-1.0595 -0.66656,-2.5176 -0.11284,-0.71828 -0.20164,-1.4169 -0.26699,-2.0956 -0.0654,-0.67865 -0.11825,-1.3369 -0.1589,-1.9745 -0.0609,-0.95612 0.0284,-1.6024 0.2657,-1.9377 0.0778,-0.13314 0.23081,-0.27112 0.45868,-0.4145 0.22796,-0.14342 0.55267,-0.28284 0.97428,-0.4197 0.42179,-0.13693 0.95007,-0.27168 1.5863,-0.40682 0.63666,-0.13524 1.3994,-0.27185 2.2925,-0.41418 0.8286,-0.13665 1.6035,-0.25135 2.3277,-0.34286 0.72081,-0.11252 1.3585,-0.22024 1.9075,-0.32025 0.54538,-0.12084 0.9918,-0.22325 1.3256,-0.30233 0.35508,-0.10314 0.57978,-0.21418 0.67418,-0.33191 -0.0453,-0.40229 -0.10714,-0.75996 -0.18519,-1.0728 -0.0569,-0.31529 -0.15849,-0.64693 -0.30423,-0.99526 -0.14339,-0.32709 -0.28045,-0.60134 -0.4114,-0.82274 -0.13102,-0.22151 -0.29779,-0.48162 -0.50028,-0.78125 -0.0535,-0.10136 -0.16637,-0.1641 -0.33862,-0.18846 -0.17453,-0.04555 -0.35599,-0.05837 -0.54458,-0.0385 -0.35653,0.03754 -0.83937,0.17341 -1.4521,0.40568 -0.5957,0.20962 -1.3468,0.50596 -2.269,0.88899 0.11964,0.50252 0.23972,1.005 0.36026,1.5074 -0.16165,0.10022 -0.37938,0.17332 -0.653,0.21882 -0.25386,0.02237 -0.53032,0.04633 -0.82659,0.07144 -0.55112,0.0467 -1.1255,0.0721 -1.7224,0.07571 -0.5984,-0.01763 -1.2754,-0.08482 -2.0284,-0.20352 -0.66769,-0.12445 -1.1758,-0.24182 -1.5215,-0.34794 -0.34746,-0.1275 -0.54366,-0.2121 -0.58829,-0.25192 0,2e-6 0,4e-6 8e-6,6e-6 z m 9.0377,9.5861 c 0.10982,0.225 0.38063,0.39239 0.81284,0.50051 0.42984,0.08686 1.0417,0.09133 1.8325,0.0097 1.7139,-0.17696 2.7263,-0.55226 3.0391,-1.103 0.34006,-0.51165 0.41035,-1.5916 0.21545,-3.243 -0.0425,-0.35975 -0.0965,-0.63245 -0.16201,-0.81785 -0.0655,-0.18544 -0.13672,-0.32733 -0.21365,-0.42565 -0.0984,-0.09582 -0.22779,-0.17735 -0.38802,-0.24471 -0.16287,-0.08863 -0.49694,-0.15724 -1.0029,-0.20806 -0.39606,-0.04159 -0.78709,-0.0417 -1.1736,-2.63e-4 -0.3674,0.01795 -0.74437,0.04689 -1.1311,0.08669 -0.62315,0.06412 -1.1098,0.18698 -1.4613,0.371 -0.33196,0.16071 -0.57918,0.30171 -0.74167,0.42404 -0.0957,0.13737 -0.16004,0.37876 -0.19307,0.72412 -0.035,0.32403 -0.024,0.79393 0.0334,1.4089 0.12086,1.2943 0.29808,2.1327 0.53402,2.5176 -1e-5,0 -1e-5,0 -2e-5,-10e-7 z"
           id="path843" />
        <path
           d="m 119.16,50.119 c 0.88978,-0.12971 1.7397,-0.39777 2.5462,-0.80301 0.82651,-0.40828 1.7415,-0.97441 2.7395,-1.7002 -0.14494,0.62879 -0.18344,1.7269 -0.11734,3.2934 0.0626,1.5446 0.22664,3.5402 0.49127,5.981 0.26451,2.4397 0.62727,5.3128 1.0881,8.6068 0.4786,3.2684 1.0424,6.9429 1.6906,11.005 -2.1236,0.33589 -4.2544,0.65208 -6.3922,0.94658 -1.6325,-9.2019 -3.2344,-18.408 -4.805,-27.619 0.37141,0.16451 0.78833,0.27917 1.2506,0.34337 0.47946,0.04025 0.98247,0.02222 1.5082,-0.05442 z"
           id="path845" />
        <path
           d="m 127.09,60.41 c 0.007,-0.21736 0.009,-0.46628 0.005,-0.74676 -0.004,-0.28143 -0.007,-0.62485 -0.0115,-1.036 -0.004,-0.41017 -0.0207,-0.89396 -0.0499,-1.4514 -0.012,-0.58161 -0.0335,-1.2815 -0.0646,-2.0979 0.19869,-0.20637 0.4951,-0.39682 0.88922,-0.57225 0.41161,-0.20018 0.97403,-0.43726 1.6894,-0.71468 0.83479,-0.31998 1.6173,-0.56895 2.3498,-0.746 0.75291,-0.18077 1.5196,-0.34478 2.3005,-0.49215 1.5422,-0.29105 2.832,-0.44596 3.878,-0.45757 1.0409,-0.03253 1.8913,0.0451 2.5529,0.2366 0.14163,0.16698 0.30438,0.38396 0.48851,0.65098 0.1798,0.24612 0.37708,0.57565 0.59206,0.98853 0.23567,0.40868 0.50151,0.90888 0.79806,1.5007 0.29656,0.59187 0.63017,1.3064 1.0016,2.1436 1.705,3.7663 2.8263,6.8388 3.3423,9.2629 0.22638,1.0635 0.32105,1.9257 0.28303,2.5879 -0.0211,0.63654 -0.21486,1.1464 -0.58206,1.5289 -0.16614,0.16543 -0.67219,0.42545 -1.5183,0.77476 -0.8434,0.3482 -2.0749,0.77632 -3.681,1.2673 -0.26855,-0.39264 -0.5366,-0.78553 -0.80417,-1.1787 -1.7648,0.47661 -3.5364,0.94217 -5.315,1.3953 -2.4961,0.45342 -4.0205,0.40463 -4.5557,-0.1107 -0.23521,-0.19835 -0.54078,-1.012 -0.91526,-2.4418 -0.18543,-0.7043 -0.34533,-1.3913 -0.48008,-2.0609 -0.13477,-0.66953 -0.25514,-1.3199 -0.36128,-1.951 -0.15917,-0.94642 -0.13741,-1.5993 0.0638,-1.9575 0.0636,-0.14053 0.20135,-0.29351 0.41306,-0.45932 0.21175,-0.16584 0.52026,-0.33742 0.92547,-0.51571 0.40535,-0.17834 0.91735,-0.36491 1.5365,-0.56146 0.61951,-0.19663 1.3656,-0.4064 2.2404,-0.63229 0.81131,-0.2142 1.5721,-0.40016 2.2843,-0.55723 0.70729,-0.17779 1.3319,-0.34201 1.8698,-0.49026 0.53272,-0.16883 0.96712,-0.30939 1.2931,-0.41729 0.34457,-0.13355 0.55873,-0.26344 0.64263,-0.38894 -0.0798,-0.39728 -0.17218,-0.74861 -0.27698,-1.0539 -0.0839,-0.3095 -0.2138,-0.63152 -0.3894,-0.96623 -0.17142,-0.31382 -0.33213,-0.57545 -0.48225,-0.78486 -0.15017,-0.20949 -0.33963,-0.45446 -0.56842,-0.73551 -0.0624,-0.09641 -0.18089,-0.1491 -0.35555,-0.15825 -0.1788,-0.03008 -0.36173,-0.02685 -0.54891,0.0097 -0.35376,0.06905 -0.82571,0.24766 -1.4183,0.53489 -0.57691,0.26281 -1.3033,0.62789 -2.1892,1.0962 0.16679,0.48981 0.33387,0.97954 0.50123,1.4692 -0.15198,0.11505 -0.36241,0.20832 -0.63118,0.2795 -0.2512,0.04625 -0.52487,0.09637 -0.81815,0.14971 -0.54551,0.09921 -1.1161,0.18004 -1.7114,0.24212 -0.5989,0.04107 -1.281,0.04118 -2.0445,-0.0011 -0.67921,-0.05668 -1.1981,-0.12137 -1.5544,-0.19149 -0.36016,-0.09122 -0.56478,-0.15498 -0.61356,-0.19005 0,2e-6 1e-5,3e-6 1e-5,5e-6 z m 9.9139,8.6766 c 0.12935,0.21438 0.41187,0.35665 0.84766,0.4257 0.43159,0.04807 1.0344,-0.002 1.8059,-0.15249 1.672,-0.32608 2.6365,-0.78402 2.8973,-1.3592 0.291,-0.53818 0.26862,-1.6212 -0.0644,-3.2513 -0.0726,-0.35518 -0.14923,-0.62254 -0.22986,-0.80197 -0.0806,-0.17945 -0.16329,-0.31498 -0.24794,-0.40659 -0.10576,-0.08733 -0.24101,-0.1578 -0.40573,-0.21151 -0.16909,-0.07466 -0.50659,-0.11506 -1.0132,-0.12255 -0.39672,-0.0077 -0.78498,0.0259 -1.1651,0.10081 -0.36315,0.04983 -0.73486,0.11172 -1.1153,0.18561 -0.6129,0.11904 -1.085,0.28537 -1.4168,0.5006 -0.31468,0.19025 -0.54695,0.35342 -0.69674,0.49023 -0.0822,0.14572 -0.12348,0.39227 -0.12396,0.73964 -0.005,0.32633 0.0505,0.79372 0.16491,1.4016 0.2408,1.2792 0.49463,2.0991 0.76316,2.4613 l -3e-5,2e-6 z"
           id="path847" />
      </g>
      <g
         stroke-width="0.70143"
         id="g857">
        <path
           d="m 76.808,106.53 c 0.22502,0.0919 0.41237,0.16166 0.56293,0.20915 0.15151,0.0261 0.37925,0.0438 0.68481,0.0542 0.38197,0.013 0.68912,0.003 0.92177,-0.0309 0.23249,-0.034 0.4557,-0.12158 0.67011,-0.26295 0.10115,-0.40351 0.19716,-0.9256 0.28791,-1.5656 0.11805,-0.66057 0.19677,-1.301 0.23476,-1.922 0.02358,-0.38539 0.05305,-0.8671 0.08842,-1.4452 0.03535,-0.57788 0.06143,-1.2212 0.07766,-1.9286 0.01754,-0.72886 0.02395,-1.5017 0.01856,-2.3174 -0.0041,-0.8371 -0.02132,-1.6967 -0.05241,-2.5777 -0.03488,-0.81693 -0.07857,-1.5054 -0.13053,-2.0654 -0.05073,-0.58138 -0.1073,-1.077 -0.16935,-1.4871 -0.03258,-0.43041 -0.08275,-0.80767 -0.15068,-1.132 -0.03943,-0.32326 -0.09347,-0.64707 -0.16242,-0.97132 4.0321,0.12334 7.9378,0.34515 11.714,0.57183 0.43179,0.02442 0.862,0.04893 1.2907,0.0734 -0.21491,1.4489 -0.39068,2.9103 -0.5273,4.3855 -0.10784,1.4552 -0.18691,2.8911 -0.23717,4.307 -0.04827,1.3944 -0.06576,2.7484 -0.05226,4.0609 0.0423,1.2928 0.12061,2.4916 0.23536,3.5955 0.44372,0.17875 0.8003,0.28723 1.0686,0.32554 0.29528,0.04 0.55146,0.0667 0.76822,0.08 0.37934,0.0234 0.71193,-0.0316 0.99682,-0.16497 0.60846,-6.446 1.2152,-12.892 1.82,-19.338 2.5704,0.0257 5.0613,0.03425 7.4663,-0.0062 -0.24339,1.406 -0.52568,2.9742 -0.85015,4.6985 -0.32359,1.7046 -0.68344,3.459 -1.083,5.2672 -0.37345,1.8095 -0.78087,3.6038 -1.2246,5.3881 -0.44301,1.7812 -0.87562,3.451 -1.2905,4.9966 -0.41518,1.5466 -0.81155,2.9254 -1.1837,4.13 -0.37045,1.1829 -0.68268,2.0932 -0.93027,2.7235 -2.5317,-0.16433 -4.9954,-0.3524 -7.3927,-0.54039 -0.36903,-0.53302 -0.67742,-1.1198 -0.92654,-1.7596 -0.05631,-0.14367 -0.10962,-0.29005 -0.15994,-0.43916 -0.27404,-0.81212 -0.52199,-1.7517 -0.7451,-2.819 -0.16679,-0.80552 -0.29495,-1.5987 -0.38446,-2.378 -0.08758,-0.80086 -0.16129,-1.612 -0.22111,-2.4326 -0.85941,-0.12809 -1.7168,-0.25508 -2.5726,-0.37978 -0.21577,0.9767 -0.45668,1.9512 -0.72204,2.9252 -0.2637,0.95301 -0.5801,1.9334 -0.94754,2.9453 -0.32927,0.86286 -0.65635,1.5759 -0.98146,2.1386 -0.32518,0.56278 -0.67824,1.0277 -1.0583,1.395 -0.20437,0.0326 -0.3821,0.0559 -0.5338,0.07 -0.12671,0.0153 -0.27802,0.0294 -0.454,0.0425 -0.15103,0.0143 -0.33827,0.0162 -0.5615,0.006 -0.2247,0.0113 -0.49717,0.01 -0.81732,-0.004 -2.0886,-0.0876 -3.4942,-0.30935 -4.2945,-0.70815 -0.40496,-1.0129 -0.78092,-2.2401 -1.1329,-3.6774 -0.35156,-1.4578 -0.69471,-3.0048 -1.0284,-4.6314 -0.12885,-0.6017 -0.27178,-1.3048 -0.43352,-2.1204 -0.13512,-0.83394 -0.28778,-1.7358 -0.45886,-2.6977 -0.17137,-0.9635 -0.34815,-1.9795 -0.53168,-3.0497 -0.15565,-1.0701 -0.31629,-2.1509 -0.48218,-3.242 -0.20013,-1.3499 -0.36103,-2.5659 -0.47746,-3.6595 0.01864,0.17506 -0.37921,-3.5466 -0.36056,-3.3715 2.0184,-0.12688 4.0072,-0.217 5.9641,-0.27962 -0.0036,1.2864 -0.04025,2.6457 -0.10704,4.081 -0.03768,1.4367 -0.03487,2.9986 0.003,4.6938 0.03855,1.6746 0.12494,3.5153 0.25056,5.5349 0.15231,2.0189 0.39414,4.2521 0.70596,6.7057 z"
           id="path851" />
        <path
           d="m 106.56,92.518 c 0.552,-0.71215 1.8401,-1.1555 3.8271,-1.419 1.0356,-0.14273 2.2358,-0.23051 3.6293,-0.28732 1.6704,-0.06809 3.087,-0.09995 4.2637,-0.07492 1.1771,0.0038 2.1192,0.0981 2.8575,0.30548 0.79595,0.28528 1.7486,1.6133 2.9889,3.9602 0.9058,1.8728 1.5228,3.286 1.7991,4.3471 l 0.049,0.18834 c 0.0796,0.09529 -0.20165,0.32384 -0.86365,0.67211 -0.66068,0.32417 -1.7587,0.73819 -3.2831,1.1762 -1.7404,0.50774 -3.491,0.8709 -5.2144,1.1013 -1.7241,0.23044 -3.4214,0.3498 -5.0714,0.37113 -0.35213,-0.0121 -0.7038,-0.0256 -1.0549,-0.0406 -0.55446,-0.0233 -1.108,-0.0497 -1.6604,-0.0791 l -0.004,0.57862 c -0.003,0.36413 0.0626,0.77208 0.19895,1.2226 0.13658,0.4293 0.35912,0.75155 0.66878,0.96615 0.27316,0.0131 0.5467,0.0256 0.82063,0.0373 1.7605,0.0782 3.54,0.11975 5.3345,0.11498 0.66118,-0.0219 1.3239,-0.05 1.9879,-0.0849 0.0865,-0.006 0.12326,-0.0732 0.11035,-0.20144 -0.0636,-0.20012 -0.12675,-0.4003 -0.18956,-0.60054 -0.076,-0.18856 -0.15152,-0.37722 -0.22658,-0.56596 1.1486,-0.1843 2.2477,-0.40708 3.2947,-0.66571 1.0796,-0.26261 2.3016,-0.48216 3.7033,-0.68987 0.56021,-0.083 0.95274,-0.12528 1.1877,-0.11985 0.25643,-0.0202 0.50154,-0.0289 0.73581,-0.0258 -0.34379,2.4438 -0.81541,4.8923 -1.399,7.3403 -0.94051,0.16288 -1.8793,0.31088 -2.8155,0.4449 -2.2835,0.29102 -4.5484,0.49878 -6.784,0.63671 -1.8904,0.0803 -3.5329,0.0581 -4.8921,-0.0284 -0.88143,-0.0529 -1.6575,-0.13141 -2.3258,-0.23026 -1.6996,-0.25139 -2.7557,-0.67972 -3.1917,-1.2462 -0.723,-0.73023 -0.99083,-2.7477 -0.83769,-6.0706 0.0533,-1.1563 0.14617,-2.2795 0.27571,-3.3691 0.15727,-1.1103 0.33765,-2.1984 0.53929,-3.2647 0.4596,-2.2365 0.97149,-3.7051 1.542,-4.3988 z m 1.9692,3.9825 c -0.10512,0.19196 -0.16091,0.49175 -0.16619,0.89875 -0.003,0.27857 -0.007,0.56786 -0.0113,0.86782 -0.003,0.27857 0.019,0.55738 0.0684,0.83638 0.0732,0.49363 0.24157,0.86983 0.50684,1.1284 0.22019,0.21141 0.73487,0.34603 1.5416,0.39252 0.25908,0.0149 0.54869,0.0207 0.86799,0.0166 0.69722,-0.009 1.3404,-0.0335 1.9291,-0.0718 0.58871,-0.0383 1.1618,-0.11299 1.7173,-0.22359 0.60719,-0.13433 1.0768,-0.28944 1.4084,-0.45925 0.3565,-0.19287 0.57756,-0.37991 0.66609,-0.55774 0.0645,-0.15498 0.0847,-0.34996 0.0616,-0.58528 8.4e-4,-0.25854 -0.0169,-0.56918 -0.0528,-0.93292 -0.0633,-0.64108 -0.24706,-1.0709 -0.54469,-1.2886 -0.22294,-0.22288 -0.81448,-0.36789 -1.7777,-0.45397 -0.65995,-0.03533 -1.2239,-0.05872 -1.7069,-0.06617 -0.45616,-0.0296 -0.91162,-0.04033 -1.3677,-0.03198 -0.46438,0.0085 -0.87683,0.02411 -1.2401,0.04849 -1.1064,0.07172 -1.7411,0.22383 -1.9,0.48222 z"
           id="path853" />
        <path
           d="m 123.15,86.834 c 0.64233,-0.12223 1.2449,-0.27513 1.8068,-0.45706 0.12694,-0.04079 0.25403,-0.08353 0.38114,-0.12827 0.44069,-0.14824 0.88845,-0.32097 1.3398,-0.51905 1.0832,-0.46212 1.8958,-0.89007 2.3991,-1.1876 0.50572,-0.32467 0.71916,-0.5433 0.6635,-0.64006 0.0253,0.11516 0.22487,0.60508 0.59155,1.5106 0.36442,0.8999 0.92021,2.2338 1.6285,4.0145 0.92724,2.3571 1.7852,4.7364 2.573,7.1356 1.3706,-0.73095 2.6831,-1.5147 3.9319,-2.345 0.79774,-0.48046 1.6904,-1.0462 2.6385,-1.701 0.97894,-0.67258 1.8233,-1.2445 2.6044,-1.7286 0.83463,-0.51728 1.5552,-0.7453 2.21,-0.66369 0.34387,0.04202 0.73151,0.22093 1.1603,0.5381 0.44811,0.30236 0.97114,0.73956 1.5583,1.3097 0.65436,0.63541 1.3283,1.3606 2.0065,2.1758 0.67758,0.81442 1.4029,1.7439 2.156,2.7837 0.72202,1.0096 1.2256,1.8849 1.5148,2.6292 0.28849,0.7425 0.45265,1.3331 0.50296,1.7618 0.0922,0.75586 -0.39707,1.727 -1.5434,2.8614 -1.1074,1.1078 -3.0186,2.3963 -5.7454,3.629 -2.1932,0.99148 -4.7096,1.8721 -7.5204,2.5589 -1.7856,0.45051 -3.7133,0.82949 -5.7687,1.1083 -1.1524,0.14428 -2.3308,0.25886 -3.5334,0.34105 0.11205,-0.59547 0.0358,-1.5016 -0.22731,-2.7286 -0.27026,-1.2522 -0.69941,-2.8387 -1.2873,-4.7984 -0.4866,-1.6222 -1.0136,-3.2764 -1.5743,-4.9716 -0.56125,-1.697 -1.1744,-3.4512 -1.8303,-5.2834 -1.2232,-3.5311 -2.0969,-5.959 -2.6366,-7.2054 z m 11.089,13.662 c -0.45588,0.34574 -0.68816,0.87888 -0.69854,1.607 -0.0103,0.72298 0.26762,1.82 0.84942,3.2586 0.17274,0.42717 0.33559,0.7883 0.49028,1.0848 0.1855,0.28769 0.40615,0.5314 0.66391,0.73037 0.10467,0.0835 0.28434,0.13475 0.53914,0.15164 0.27776,-0.0125 0.56309,-0.0514 0.85477,-0.1171 0.70911,-0.16951 1.3903,-0.36527 2.0415,-0.585 0.64129,-0.23952 1.3035,-0.50863 1.9826,-0.80911 0.70969,-0.31187 1.3902,-0.63909 2.041,-0.9795 0.66764,-0.37113 1.1887,-0.70876 1.563,-0.9973 0.46784,-0.37955 0.70291,-0.78549 0.71182,-1.2086 -0.003,-0.4433 -0.26333,-1.1338 -0.78169,-2.0756 -0.337,-0.58136 -0.7174,-1.1177 -1.1339,-1.6111 -0.39042,-0.50556 -0.79939,-0.86775 -1.2184,-1.0882 -0.10192,-0.05068 -0.28487,-0.0748 -0.54913,-0.07502 -0.27749,-0.01896 -0.66432,0.03742 -1.1671,0.162 -0.64105,0.1613 -1.207,0.32671 -1.7042,0.50409 -0.48258,0.14764 -0.98059,0.31842 -1.4983,0.51155 -0.75158,0.28036 -1.3518,0.54535 -1.8067,0.8132 -0.46353,0.24736 -0.85673,0.4866 -1.1796,0.72334 z"
           id="path855" />
      </g>
    </g>
    <g
       fill="#e6e6e6"
       stroke-width="0.24626"
       id="g897">
      <path
         d="m 32.089,39.897 c -1.8154,-0.45213 -3.6268,-0.93121 -5.4332,-1.436 0.53876,-2.6534 1.084,-5.3043 1.6355,-7.9528 1.7523,0.4871 3.5081,0.94952 5.2665,1.3862 -0.49637,2.6653 -0.98602,5.3329 -1.4689,8.0027 z m -0.16118,-4.8632 c 0.06292,-0.32507 0.12594,-0.65011 0.18904,-0.97512 -1.1433,-0.29121 -2.2854,-0.59321 -3.4258,-0.90565 -0.06453,0.32478 -0.12896,0.64961 -0.19328,0.97447 0.43726,0.11981 0.87476,0.2381 1.3125,0.35482 -0.27158,1.3753 -0.54139,2.7512 -0.80946,4.1278 0.29084,0.07587 0.58178,0.15106 0.87284,0.22556 0.25949,-1.3757 0.52079,-2.7507 0.78389,-4.1252 0.42324,0.10922 0.84668,0.21698 1.2702,0.32326 z"
         id="path861" />
      <path
         d="m 39.413,34.786 c -0.34153,2.3581 -0.6766,4.7178 -1.0052,7.0793 -1.8139,-0.34736 -3.6257,-0.72267 -5.4345,-1.1249 0.37475,-2.3562 0.75588,-4.7103 1.1433,-7.0625 1.7638,0.39576 3.5296,0.76549 5.2964,1.1081 z m -1.0815,0.89233 c -0.19888,-0.03946 -0.39774,-0.07925 -0.59659,-0.11938 4.7e-5,-3.28e-4 -0.2486,1.7809 -0.24856,1.7805 -0.57996,-0.11435 -1.1598,-0.23155 -1.7394,-0.35159 4.8e-5,-3.14e-4 0.27254,-1.7848 0.27258,-1.7852 -0.34115,-0.06491 -0.68226,-0.13082 -1.0234,-0.19769 -0.04254,0.22493 -0.08504,0.44988 -0.1275,0.67484 0.14487,0.02818 0.28975,0.05619 0.43464,0.08402 -0.19763,1.2513 -0.39347,2.5032 -0.5875,3.7555 0.19966,0.05372 0.39937,0.1071 0.59914,0.16015 0.10302,-0.67551 0.20658,-1.3508 0.31067,-2.0261 0.57732,0.12281 1.1549,0.24281 1.7326,0.35998 -0.09849,0.67281 -0.19645,1.3458 -0.29387,2.0189 0.2094,0.03949 0.41883,0.07861 0.62827,0.11736 0.2103,-1.4912 0.42326,-2.9817 0.63887,-4.4714 z"
         id="path863" />
      <path
         d="m 44.714,37.588 c -0.59023,1.8504 -1.185,3.6992 -1.7843,5.5464 -1.3352,-0.56338 -2.6637,-1.1424 -3.9853,-1.7362 0.62535,-1.8348 1.2465,-3.6713 1.8634,-5.5094 1.2959,0.58135 2.598,1.148 3.9062,1.6992 z m -0.89815,0.52607 c -0.9232,-0.39022 -1.8434,-0.78806 -2.7604,-1.1932 -0.06397,0.19229 -0.12799,0.38457 -0.19205,0.57683 0.15603,0.07406 0.31218,0.14792 0.46842,0.22155 -0.4034,1.1919 -0.80871,2.3831 -1.2159,3.5735 0.80068,0.35773 1.6039,0.70996 2.4095,1.0565 -10e-6,3.1e-5 0.19791,-0.58697 0.1979,-0.58694 -0.62824,-0.27219 -1.255,-0.54783 -1.8801,-0.82687 -4.4e-5,1.32e-4 0.42369,-1.2957 0.42364,-1.2956 0.58088,0.25774 1.163,0.51254 1.7465,0.76433 -8e-6,2.7e-5 0.18814,-0.58986 0.18813,-0.58983 -0.57588,-0.24937 -1.1505,-0.50167 -1.7239,-0.75685 0.12445,-0.37489 0.24873,-0.74984 0.37281,-1.1249 0.59147,0.2603 1.1843,0.51752 1.7783,0.7716 -8e-6,2.9e-5 0.18712,-0.59023 0.18711,-0.5902 z"
         id="path865" />
      <path
         d="m 53.889,39.323 c -0.51624,1.8752 -1.0376,3.749 -1.564,5.6213 -1.5645,-0.56884 -3.1206,-1.1605 -4.668,-1.7739 0.56751,-1.8607 1.1301,-3.7231 1.6879,-5.587 1.507,0.60146 3.0218,1.1816 4.5442,1.7395 z m -1.8773,4.7701 c -0.09138,-1.5346 -0.1755,-3.0687 -0.25246,-4.6024 -0.55304,-0.21346 -1.1051,-0.42983 -1.6559,-0.64904 -7e-6,2.7e-5 -0.17031,0.59662 -0.17032,0.59666 0.29668,0.1187 0.59369,0.23657 0.891,0.35361 -0.73768,0.9943 -1.4833,1.9841 -2.2367,2.9692 0.13989,0.14099 0.28004,0.28182 0.42046,0.42245 0.25796,-0.33924 0.51501,-0.67902 0.77113,-1.0193 0.53119,0.20219 1.0634,0.40176 1.5965,0.5987 0.02906,0.45778 0.0588,0.91558 0.0892,1.3735 0.18247,-0.01413 0.36485,-0.02856 0.54714,-0.04329 z m -0.66125,-1.9853 c -0.39963,-0.15074 -0.79869,-0.30297 -1.1972,-0.45668 0.3685,-0.48594 0.73508,-0.97299 1.0997,-1.4612 0.03126,0.6392 0.06376,1.2784 0.0975,1.9178 z"
         id="path867" />
      <path
         d="m 59.113,48.087 c -1.8878,0.0019 -3.7801,-0.03024 -5.6756,-0.09533 0.02841,-2.2543 0.0672,-4.5075 0.11624,-6.7596 1.8398,0.06534 3.6753,0.09872 5.5052,0.09915 0.0073,2.2512 0.02537,4.5031 0.05419,6.7558 z m -1.411,-0.60226 c 0.02693,2.82e-4 0.26241,0.0025 0.28934,0.0027 0.0834,0.0019 0.1543,0.0013 0.21265,-0.0018 0.05734,0.0039 0.10894,0.0031 0.15476,-0.0024 0.04482,0.0015 0.0964,5.94e-4 0.15473,-0.0025 -0.0019,-0.14337 -0.0038,-0.28675 -0.0057,-0.43012 -0.10395,0.0087 -0.21055,0.01326 -0.31979,0.0136 -0.10863,3.42e-4 -0.26071,-3.1e-4 -0.45264,-0.0023 -0.03226,8.26e-4 -0.06089,-0.0013 -0.08587,-0.0061 -0.02602,0.002 -0.05464,-2.5e-5 -0.08587,-0.0062 -0.18116,-0.03575 -0.33006,-0.13702 -0.44634,-0.30355 -0.11629,-0.16656 -0.18589,-0.38475 -0.20896,-0.65449 -0.0099,-0.14528 -0.01823,-0.30099 -0.02486,-0.46713 -0.0056,-0.17307 -0.02506,-0.33825 -0.0584,-0.49553 -0.02609,-0.16296 -0.07021,-0.31172 -0.13228,-0.44631 -0.06208,-0.13459 -0.15354,-0.24302 -0.27439,-0.32545 0.16933,-0.06525 0.30268,-0.16685 0.40013,-0.30452 0.09852,-0.14463 0.16205,-0.31079 0.19085,-0.49839 0.05653,-0.36822 0.006,-0.65804 -0.1505,-0.86951 -0.15664,-0.21157 -0.3812,-0.34786 -0.67426,-0.40978 -0.06717,-0.0142 -0.13487,-0.02496 -0.20314,-0.03229 -0.06826,-0.0073 -0.14014,-0.0119 -0.21562,-0.0137 -0.27967,-0.0033 -0.51779,-0.0067 -0.69045,-0.0093 -0.1696,-0.0082 -0.31055,-0.01425 -0.4241,-0.01776 -0.11336,-0.0035 -0.21142,-0.0037 -0.29428,-6.57e-4 -0.08169,-0.0038 -0.17006,-0.0056 -0.26516,-0.0054 -0.0014,0.1399 -0.0027,0.27982 -0.004,0.41973 0.13255,0.0045 0.26507,0.0089 0.39758,0.01314 -0.02034,1.2856 -0.03731,2.5715 -0.05089,3.8577 0.12546,0.0021 0.2509,0.0041 0.37631,0.006 0.0056,-0.65211 0.01201,-1.3041 0.01932,-1.9561 0.34044,0.0093 0.68075,0.0176 1.0209,0.02475 0.03197,-4.33e-4 0.07572,0.0052 0.13129,0.01687 0.14199,0.02982 0.24605,0.0981 0.31231,0.20508 0.07242,0.10826 0.12265,0.23693 0.15064,0.38607 0.03417,0.15041 0.05394,0.31217 0.05923,0.48528 0.0053,0.1731 0.01792,0.34053 0.03795,0.5023 0.03879,0.37345 0.14122,0.67019 0.30747,0.89002 0.16516,0.22673 0.37641,0.36569 0.63305,0.41635 0.03755,0.0074 0.0725,0.01072 0.10482,0.0099 0.03755,0.0074 0.07563,0.01129 0.11421,0.01169 -10e-7,3e-6 -2e-6,5e-6 -4e-6,7e-6 z m -1.5743,-4.7914 c 0.16518,0.03488 0.29662,0.12335 0.39455,0.26566 0.10512,0.13661 0.14007,0.31949 0.10445,0.54869 -0.06578,0.42331 -0.40934,0.633 -1.0323,0.6224 -0.02536,-6.21e-4 -0.26023,-0.0067 -0.28558,-0.0073 -0.07001,-6.81e-4 -0.13386,-8.1e-5 -0.19155,0.0018 -0.05042,-0.0037 -0.09774,-0.0068 -0.142,-0.0092 -0.03808,-0.0011 -0.08543,-0.0042 -0.142,-0.0093 0.0093,-0.48636 0.01915,-0.97267 0.02941,-1.459 0.20255,0.0013 0.41805,0.0015 0.64605,2.83e-4 0.2292,-0.0081 0.43543,0.0071 0.61899,0.04583 v 3e-6 z"
         id="path869" />
      <path
         d="m 65.856,48.394 c -1.859,-0.07598 -3.7195,-0.18649 -5.5806,-0.33038 0.14103,-2.7191 0.2907,-5.4373 0.44895,-8.1546 1.7892,0.14033 3.5764,0.24842 5.3608,0.32309 -0.08535,2.72 -0.16177,5.4407 -0.22919,8.1619 z m -0.8962,-4.7476 c 0.01292,-0.33226 0.02596,-0.6645 0.03913,-0.99674 -1.1649,-0.05705 -2.3308,-0.12801 -3.4973,-0.21259 -0.01587,0.33253 -0.03161,0.66508 -0.0472,0.99764 0.44774,0.03234 0.89541,0.0627 1.343,0.09104 -0.06326,1.4073 -0.12418,2.8149 -0.18276,4.2226 0.29846,0.01692 0.59688,0.03297 0.89528,0.04814 0.04892,-1.405 0.10026,-2.8096 0.15399,-4.2142 0.43209,0.02327 0.86405,0.04465 1.2959,0.06412 z"
         id="path871" />
      <path
         d="m 75.348,42.845 c 0.0862,1.9559 0.17887,3.9117 0.27806,5.8676 -1.5804,0.09032 -3.1644,0.15405 -4.7511,0.19185 -0.05178,-1.9518 -0.09727,-3.9034 -0.13651,-5.8547 1.5405,-0.04268 3.0772,-0.11069 4.6096,-0.20471 z m -0.42896,3.2814 c 0.01705,-0.28113 -0.006,-0.56899 -0.06881,-0.8637 -0.05654,-0.29418 -0.15156,-0.56335 -0.2847,-0.80764 -0.13269,-0.25133 -0.30462,-0.46031 -0.51577,-0.62731 -0.21118,-0.16703 -0.46345,-0.26398 -0.75757,-0.29159 -0.25736,-0.02415 -0.49721,0.0092 -0.72016,0.10024 -0.2168,0.09168 -0.40952,0.22772 -0.57832,0.40842 -0.16824,0.17366 -0.30617,0.38918 -0.41359,0.6467 -0.10125,0.25817 -0.16416,0.53809 -0.18822,0.83979 -0.02853,0.35787 -0.0086,0.69607 0.06042,1.0147 0.06959,0.31158 0.17694,0.58807 0.3223,0.82934 0.1459,0.23423 0.32403,0.42551 0.5343,0.57349 0.21652,0.14858 0.45391,0.23503 0.7115,0.25906 0.26387,0.02461 0.50659,-0.01004 0.72752,-0.10361 0.22722,-0.09302 0.42232,-0.23176 0.58514,-0.41582 0.16955,-0.19059 0.30318,-0.41972 0.40114,-0.68718 0.10422,-0.26696 0.16562,-0.5586 0.1848,-0.87487 z m -1.709,-1.9511 c 0.19061,0.01794 0.35935,0.0829 0.50657,0.19514 0.15336,0.11279 0.27695,0.25796 0.37077,0.43574 0.10044,0.17128 0.17184,0.36464 0.214,0.58019 0.0488,0.20904 0.06641,0.42247 0.05253,0.64029 -0.01209,0.18971 -0.04614,0.38109 -0.10235,0.5741 -0.05577,0.18598 -0.13879,0.35549 -0.24927,0.5084 -0.10423,0.15344 -0.23811,0.27596 -0.40167,0.36732 -0.1568,0.08489 -0.34185,0.11756 -0.55476,0.09767 -0.17533,-0.01638 -0.33465,-0.08107 -0.47762,-0.19391 -0.14298,-0.11284 -0.26462,-0.25567 -0.36488,-0.42832 -0.09349,-0.17907 -0.16273,-0.38408 -0.20782,-0.615 -0.0451,-0.23093 -0.05779,-0.47272 -0.0384,-0.7254 0.01668,-0.21757 0.05708,-0.41858 0.12095,-0.60306 0.07005,-0.18384 0.15968,-0.34099 0.26879,-0.47151 0.10912,-0.13053 0.23722,-0.22742 0.38434,-0.29086 0.14713,-0.06343 0.30665,-0.08698 0.47882,-0.07079 10e-7,0 2e-6,0 3e-6,10e-7 z"
         id="path873" />
      <path
         d="m 82.452,49.413 c -1.782,0.30786 -3.573,0.58045 -5.3718,0.81862 -0.24683,-2.1677 -0.48151,-4.3359 -0.70416,-6.5047 1.7422,-0.23589 3.4754,-0.50544 5.1986,-0.80947 0.28005,2.1659 0.57246,4.3312 0.87736,6.4955 z m -1.5616,-2.6174 c -0.03041,-0.2549 -0.06066,-0.5098 -0.09075,-0.76472 -0.63089,0.10666 -1.263,0.20884 -1.8963,0.30657 -0.04677,-0.40087 -0.09314,-0.80176 -0.13909,-1.2027 0.65088,-0.09595 1.3006,-0.19663 1.9489,-0.3021 -0.03285,-0.25152 -0.06554,-0.50306 -0.09805,-0.7546 -1.0382,0.17415 -2.0799,0.33599 -3.1248,0.48569 0.02537,0.24853 0.0509,0.49705 0.07658,0.74556 0.17791,-0.02427 0.35573,-0.0489 0.53345,-0.07386 0.15934,1.3953 0.32375,2.7904 0.49325,4.1853 0.22352,-0.04102 0.44688,-0.08257 0.67008,-0.12467 -0.09059,-0.7342 -0.17978,-1.4685 -0.26756,-2.2028 0.63259,-0.09479 1.264,-0.194 1.8944,-0.29766 z"
         id="path875" />
      <path
         d="m 91.292,42.468 c 0.40084,1.9696 0.81403,3.9369 1.2395,5.9019 -0.6923,0.19206 -1.3869,0.37847 -2.0838,0.55913 -0.88758,0.22927 -1.7781,0.44925 -2.6714,0.66004 -0.36866,-1.9832 -0.72543,-3.9676 -1.0704,-5.953 1.1974,-0.28108 2.3889,-0.57938 3.5743,-0.8952 0.33789,-0.0895 0.67523,-0.18042 1.012,-0.27276 z m -0.41944,3.9672 c -0.01927,0.39611 -0.12939,0.6864 -0.3313,0.87049 -0.04378,0.03835 -0.08874,0.07274 -0.13485,0.10317 -0.16666,0.10992 -0.3485,0.16807 -0.54507,0.17428 -0.16939,0.0054 -0.33054,-0.03931 -0.48304,-0.13384 -0.15252,-0.09454 -0.28668,-0.22511 -0.40241,-0.39156 -0.11573,-0.16646 -0.2098,-0.36529 -0.28233,-0.59642 -0.0663,-0.23129 -0.10147,-0.4809 -0.10591,-0.74886 -0.0033,-0.19744 0.01844,-0.38485 0.0649,-0.56226 0.04646,-0.17742 0.11483,-0.33069 0.205,-0.4599 0.09621,-0.13642 0.21126,-0.24169 0.34522,-0.31595 0.13383,-0.08132 0.28978,-0.12465 0.46814,-0.13026 0.1722,-0.0054 0.32115,0.046 0.4472,0.15453 0.08662,0.07097 0.15809,0.16511 0.21442,0.28252 0.02962,0.06179 0.05505,0.13003 0.07629,0.2047 0.18594,-0.09146 0.37158,-0.18336 0.5569,-0.27566 -0.11634,-0.36934 -0.29367,-0.64109 -0.5317,-0.81586 -0.04184,-0.03072 -0.08443,-0.0586 -0.12777,-0.08364 -0.20342,-0.11721 -0.42343,-0.17193 -0.6607,-0.16445 -0.26335,0.0084 -0.49788,0.07133 -0.70422,0.18953 -0.20631,0.11819 -0.38165,0.27741 -0.52611,0.478 -0.13842,0.19339 -0.24611,0.41767 -0.32287,0.67299 -0.07058,0.2552 -0.1043,0.52381 -0.10061,0.80584 0.0037,0.28201 0.04476,0.57757 0.12382,0.88642 0.07907,0.30889 0.19562,0.59233 0.3501,0.85012 0.15448,0.25778 0.34653,0.46868 0.57621,0.63228 0.23594,0.16341 0.50877,0.24067 0.81747,0.23102 0.20571,-0.0064 0.3951,-0.04476 0.56789,-0.11481 0.01773,-0.0072 0.03527,-0.01472 0.05264,-0.02259 0.1931,-0.08476 0.35657,-0.20416 0.4903,-0.35785 0.14002,-0.15396 0.24721,-0.33856 0.32174,-0.55357 0.07431,-0.2221 0.1129,-0.47086 0.1162,-0.74634 -0.17859,-0.02031 -0.35711,-0.041 -0.53555,-0.06208 z"
         id="path877" />
      <path
         d="m 97.915,43.916 c -0.01786,2.1595 -0.04231,4.3193 -0.07353,6.4794 -1.7682,-0.0182 -3.5342,-0.07194 -5.2972,-0.16219 0.09406,-2.1549 0.1813,-4.3097 0.26175,-6.4643 1.6993,0.08444 3.4027,0.13314 5.109,0.14709 z m -0.66702,2.8532 c -0.02445,-0.3584 -0.09349,-0.68099 -0.20641,-0.96781 -0.11293,-0.28684 -0.26,-0.53187 -0.44092,-0.73536 -0.18094,-0.2035 -0.39201,-0.35524 -0.63344,-0.45567 -0.24143,-0.10043 -0.50334,-0.13978 -0.78651,-0.11843 -0.277,0.02089 -0.53184,0.1063 -0.76535,0.25666 -0.23348,0.15035 -0.43408,0.35074 -0.60201,0.60163 -0.16205,0.24343 -0.28868,0.53023 -0.37964,0.86059 -0.0847,0.32996 -0.11904,0.68514 -0.10201,1.0655 0.01602,0.35921 0.0749,0.69109 0.17719,0.99562 0.10196,0.29747 0.24358,0.55354 0.42519,0.76794 0.18159,0.21437 0.39947,0.37664 0.6534,0.48626 0.25392,0.10961 0.53683,0.15295 0.84786,0.12944 0.27928,-0.02111 0.53544,-0.11203 0.76762,-0.27234 0.23854,-0.16083 0.4385,-0.36866 0.59976,-0.62298 0.16714,-0.26192 0.28963,-0.5627 0.36788,-0.90208 0.07774,-0.34642 0.10326,-0.70937 0.07738,-1.0889 z m -0.61711,0.06517 c 0.01401,0.21793 -0.0027,0.44915 -0.04981,0.69353 -0.04157,0.23683 -0.11583,0.45875 -0.22311,0.66561 -0.1077,0.19983 -0.24927,0.3705 -0.42473,0.51172 -0.16916,0.1407 -0.3741,0.22032 -0.61431,0.23831 -0.20228,0.01516 -0.385,-0.01756 -0.54778,-0.09789 -0.16279,-0.08033 -0.30506,-0.19772 -0.42673,-0.35198 -0.11537,-0.15469 -0.2066,-0.33936 -0.27386,-0.55393 -0.0673,-0.21457 -0.10669,-0.44507 -0.11863,-0.69151 -0.01328,-0.27458 0.0092,-0.53029 0.06593,-0.76709 0.05677,-0.24385 0.13974,-0.4577 0.24872,-0.64164 0.10862,-0.19099 0.24071,-0.34136 0.39636,-0.4513 0.1553,-0.11699 0.32855,-0.18255 0.52018,-0.19696 0.18546,-0.01394 0.36092,0.01485 0.52675,0.08649 0.16542,0.0646 0.31173,0.1693 0.43907,0.31427 0.13353,0.14445 0.2415,0.32266 0.32378,0.5348 0.08809,0.20456 0.14092,0.44041 0.15815,0.70755 l -9e-6,10e-7 z"
         id="path879" />
      <path
         d="m 103.88,49.074 c -1.6726,0.0066 -3.3426,-0.01784 -5.0092,-0.07395 0.07728,-2.3574 0.14427,-4.7144 0.20095,-7.071 1.6004,0.05035 3.2052,0.06989 4.8133,0.05941 0.008,2.3611 0.006,4.723 -0.005,7.0855 z m -0.70086,-1.0323 c 0.01,-1.6301 0.0143,-3.2599 0.0144,-4.8894 -0.19807,0.0027 -0.3961,0.0051 -0.59408,0.0069 -0.006,1.2215 -0.0157,2.4432 -0.0276,3.665 -0.67125,-1.2276 -1.3309,-2.4602 -1.9785,-3.6975 -0.34335,-0.0087 -0.6865,-0.01877 -1.0295,-0.03025 -0.0055,0.23425 -0.01035,0.46852 -0.01566,0.70279 0.12714,0.0037 0.2543,0.0071 0.38149,0.01036 -0.02967,1.3951 -0.063,2.7905 -0.09987,4.1859 0.20993,0.0088 0.41992,0.017 0.62998,0.02473 0.0236,-1.2353 0.0445,-2.4704 0.0626,-3.7054 0.65067,1.2448 1.3133,2.4848 1.9877,3.7198 0.22296,0.0029 0.44598,0.0052 0.66906,0.0069 z"
         id="path881" />
      <path
         d="m 110.3,48.847 c -1.6777,0.22022 -3.3575,0.41043 -5.0386,0.56972 -0.13739,-2.023 -0.27774,-4.0457 -0.42104,-6.068 1.6285,-0.1549 3.2564,-0.34012 4.8831,-0.5547 0.19514,2.0173 0.38732,4.0349 0.57654,6.053 z m -1.353,-2.4829 c -0.0195,-0.23909 -0.039,-0.47819 -0.0585,-0.71728 -0.59258,0.07801 -1.1854,0.15217 -1.7784,0.22242 -0.0276,-0.37291 -0.0553,-0.7458 -0.0831,-1.1186 0.60566,-0.06553 1.2112,-0.13515 1.8165,-0.20882 -0.0193,-0.23557 -0.0387,-0.47114 -0.0581,-0.70669 -0.97714,0.11973 -1.9546,0.22886 -2.9324,0.3272 0.0152,0.23241 0.0303,0.46483 0.0454,0.69724 0.16785,-0.01593 0.33569,-0.03216 0.50352,-0.04873 0.10177,1.3004 0.20233,2.6011 0.30167,3.9018 0.21161,-0.03048 0.42315,-0.06144 0.63465,-0.0929 -0.0562,-0.68505 -0.11286,-1.3701 -0.16977,-2.055 0.59303,-0.063 1.1859,-0.12987 1.7786,-0.20058 z"
         id="path883" />
      <path
         d="m 111.06,47.202 -1.0341,-7.1031 c 1.9177,-0.37256 3.8306,-0.78658 5.7378,-1.2403 l 1.2581,7.0582 c -1.9802,0.46984 -3.9679,0.89885 -5.9619,1.2852 z m 4.2588,-7.2019 c -0.16842,0.03927 -0.33688,0.07822 -0.50539,0.11686 l 0.63871,3.7154 c 0.0405,0.23525 0.0441,0.46092 0.0107,0.67707 -0.0346,0.20922 -0.10126,0.40054 -0.2002,0.57386 -0.1001,0.16638 -0.22993,0.31057 -0.38948,0.43231 -0.16069,0.11482 -0.34353,0.19473 -0.5482,0.23948 -0.20468,0.04475 -0.39764,0.04341 -0.57851,-0.0039 -0.18087,-0.04728 -0.34176,-0.13142 -0.48258,-0.2522 -0.14082,-0.12079 -0.26099,-0.27476 -0.3606,-0.46176 -0.0934,-0.18829 -0.15848,-0.40046 -0.19546,-0.63641 l -0.57917,-3.6953 c -0.33491,0.07003 -0.66997,0.13881 -1.0052,0.20634 l 0.0881,0.58354 c 0.16967,-0.03417 0.33929,-0.06866 0.50888,-0.10348 l 0.47925,3.114 c 0.046,0.29856 0.13289,0.5744 0.2614,0.82731 0.13361,0.2447 0.29735,0.45444 0.49143,0.62895 0.19298,0.16756 0.41409,0.28598 0.66312,0.35487 0.25526,0.06756 0.52323,0.07085 0.80318,0.0096 0.26129,-0.05711 0.49837,-0.16352 0.71069,-0.31884 0.21736,-0.16364 0.39615,-0.36236 0.53626,-0.5957 0.1463,-0.23478 0.24578,-0.49512 0.29874,-0.78078 0.058,-0.29402 0.0587,-0.60004 0.003,-0.91813 -0.21629,-1.2377 -0.4326,-2.4755 -0.64889,-3.7132 z"
         id="path885" />
      <path
         d="m 121.04,37.598 c 0.5493,2.3881 1.1005,4.7755 1.6536,7.1625 -1.5602,0.48387 -3.1269,0.94314 -4.6997,1.3768 -0.4951,-2.403 -0.98821,-4.8064 -1.4794,-7.2104 1.5135,-0.41847 3.0222,-0.86177 4.5254,-1.329 z m -0.62036,2.1493 c -0.15224,-0.40822 -0.34374,-0.66832 -0.57421,-0.78063 -0.22599,-0.12084 -0.50005,-0.13863 -0.82319,-0.05431 -0.44283,0.11554 -0.78083,0.31734 -1.0151,0.60778 -0.22961,0.28198 -0.30321,0.64666 -0.21923,1.0949 0.0478,0.25516 0.13918,0.4561 0.27462,0.60265 0.1341,0.13963 0.30568,0.2409 0.51477,0.30337 0.18218,0.05486 0.38057,0.07642 0.59492,0.06447 0.21436,-0.01194 0.41862,-0.01091 0.61291,0.0033 0.19427,0.01415 0.36679,0.06262 0.51768,0.14562 0.14949,0.07614 0.24712,0.22747 0.29261,0.45434 0.0289,0.14438 0.0246,0.28314 -0.013,0.41629 -0.0329,0.12464 -0.09,0.24122 -0.17146,0.34964 -0.0766,0.09993 -0.16909,0.18584 -0.27725,0.25764 -0.10817,0.0718 -0.22051,0.12284 -0.3369,0.15308 -0.27569,0.07164 -0.53455,0.04769 -0.77567,-0.07154 -0.23499,-0.12079 -0.39687,-0.33282 -0.48608,-0.6353 -0.1297,0.05799 -0.25948,0.11578 -0.38935,0.17342 0.14718,0.41086 0.36053,0.7113 0.64084,0.90062 0.28505,0.1808 0.62185,0.22165 1.0088,0.12136 0.2088,-0.05412 0.39614,-0.13569 0.56177,-0.24444 0.17041,-0.11726 0.31125,-0.25243 0.42249,-0.40524 0.10988,-0.15969 0.18401,-0.33539 0.22255,-0.5269 0.0447,-0.19318 0.0459,-0.39282 0.005,-0.59897 -0.0933,-0.46041 -0.32194,-0.74995 -0.68409,-0.87057 -0.17814,-0.06114 -0.38016,-0.08358 -0.60629,-0.06764 -0.22142,0.0075 -0.43807,0.0059 -0.64988,-0.0044 -0.21314,-0.0173 -0.40051,-0.06699 -0.562,-0.14875 -0.1628,-0.08865 -0.26689,-0.25379 -0.31263,-0.49502 -0.0418,-0.22058 0.006,-0.43484 0.14283,-0.64307 0.14284,-0.20985 0.39399,-0.36073 0.75396,-0.45457 0.22798,-0.05942 0.42603,-0.04652 0.59466,0.03915 0.16858,0.08565 0.29627,0.26526 0.38274,0.53913 0.11815,-0.07495 0.23618,-0.15006 0.3541,-0.22531 z"
         id="path887" />
      <path
         d="m 126.47,45.106 c -0.91917,0.19751 -1.8394,0.3867 -2.7603,0.56744 -0.32986,-2.3701 -0.66553,-4.739 -1.007,-7.1064 0.88743,-0.16743 1.7745,-0.34302 2.661,-0.52661 0.37429,2.3538 0.74306,4.709 1.1062,7.0656 z m -1.2151,-0.79625 c -0.24631,-1.6868 -0.49562,-3.3729 -0.74793,-5.0583 -0.32564,0.06066 -0.65134,0.12024 -0.97704,0.17875 0.0223,0.17547 0.0447,0.35096 0.067,0.52645 0.17686,-0.04054 0.35367,-0.08139 0.53044,-0.12257 0.22443,1.522 0.44642,3.0445 0.66596,4.5676 0.15389,-0.0304 0.30777,-0.06104 0.46161,-0.09192 z"
         id="path889" />
      <path
         d="m 130.87,36.544 c 0.3655,2.1214 0.72576,4.2443 1.0808,6.3686 -1.7283,0.39863 -3.4598,0.76859 -5.1938,1.1089 -0.30501,-2.1304 -0.6154,-4.2594 -0.93116,-6.3872 1.6831,-0.33494 3.3648,-0.6987 5.0442,-1.0903 z m -0.14663,2.9552 c -0.0879,-0.34544 -0.21316,-0.64517 -0.37511,-0.89936 -0.16196,-0.25421 -0.35001,-0.45924 -0.56395,-0.61535 -0.21396,-0.15613 -0.44831,-0.25422 -0.70331,-0.29459 -0.255,-0.04037 -0.51919,-0.0158 -0.79323,0.07353 -0.26808,0.08739 -0.50269,0.23278 -0.70443,0.43668 -0.20173,0.20387 -0.36196,0.44883 -0.4808,0.73527 -0.11445,0.27771 -0.18612,0.58924 -0.2148,0.93467 -0.0226,0.34354 0.009,0.69941 0.095,1.0674 0.0814,0.34756 0.19964,0.65799 0.35522,0.93115 0.15397,0.26633 0.33901,0.48262 0.55536,0.64854 0.21632,0.16592 0.45845,0.27219 0.72611,0.31842 0.26766,0.04623 0.5515,0.02079 0.85072,-0.07663 0.26869,-0.08748 0.50224,-0.23764 0.70006,-0.44998 0.20391,-0.21436 0.36186,-0.4655 0.47383,-0.75299 0.11635,-0.29633 0.18227,-0.62012 0.19812,-0.97126 0.0141,-0.35792 -0.0257,-0.71968 -0.1188,-1.0854 z m -0.59267,0.21076 c 0.0528,0.21018 0.0781,0.44064 0.0756,0.69138 0.002,0.24195 -0.031,0.47706 -0.0987,0.70528 -0.0694,0.22143 -0.17701,0.42239 -0.32297,0.60261 -0.13989,0.17821 -0.32566,0.30518 -0.55696,0.38037 -0.19478,0.06331 -0.3791,0.07516 -0.55262,0.03567 -0.17353,-0.0395 -0.33379,-0.12013 -0.48068,-0.24177 -0.14082,-0.12358 -0.26358,-0.28229 -0.36839,-0.47603 -0.10481,-0.19374 -0.18538,-0.40979 -0.24197,-0.64809 -0.0631,-0.26551 -0.088,-0.52115 -0.0753,-0.76679 0.0112,-0.25245 0.0535,-0.48192 0.1268,-0.68841 0.0717,-0.21331 0.17383,-0.39254 0.30649,-0.53786 0.13102,-0.15213 0.28902,-0.25825 0.47433,-0.3186 0.17933,-0.05841 0.3566,-0.07248 0.53213,-0.04218 0.17385,0.02351 0.33615,0.09096 0.48704,0.20246 0.15685,0.1095 0.29466,0.25829 0.41333,0.44648 0.12296,0.17938 0.217,0.39786 0.28176,0.6555 0,10e-7 -1e-5,2e-6 -1e-5,2e-6 z"
         id="path891" />
      <path
         d="m 137.62,40.22 c -1.6344,0.38658 -3.2714,0.74817 -4.9101,1.084 -0.34205,-2.3293 -0.69221,-4.6565 -1.0504,-6.9814 1.5856,-0.32873 3.1705,-0.68231 4.7535,-1.06 0.41009,2.3166 0.81245,4.6358 1.207,6.9574 z m -0.86337,-0.85351 c -0.27169,-1.6021 -0.54704,-3.203 -0.82604,-4.8028 -0.19446,0.04812 -0.38897,0.09589 -0.5835,0.14329 0.20359,1.2006 0.40509,2.4018 0.60448,3.6037 -0.87002,-1.0507 -1.7316,-2.1076 -2.5844,-3.1705 -0.33939,0.07163 -0.67882,0.14215 -1.0183,0.21153 0.0361,0.231 0.072,0.46202 0.10791,0.69305 0.12564,-0.02629 0.25128,-0.05273 0.3769,-0.07933 0.21505,1.3756 0.42729,2.752 0.63672,4.1293 0.20697,-0.04041 0.41392,-0.08123 0.62085,-0.12246 -0.19341,-1.2171 -0.38895,-2.4337 -0.58659,-3.6497 0.85665,1.0695 1.722,2.1329 2.5959,3.1902 0.21875,-0.04836 0.43745,-0.09716 0.65613,-0.14642 z"
         id="path893" />
      <path
         d="m 140.31,32.994 c 0.77003,1.7356 1.5452,3.4684 2.3255,5.1985 -1.1358,0.66887 -2.279,1.3261 -3.4295,1.9712 -0.75239,-1.7474 -1.4995,-3.4976 -2.2412,-5.2503 1.1219,-0.62809 2.237,-1.2681 3.3453,-1.9194 z m -0.0717,1.9502 c -0.15608,-0.25066 -0.3217,-0.40396 -0.49688,-0.46004 -0.17139,-0.06512 -0.35949,-0.05632 -0.56477,0.02622 -0.36363,0.1462 -0.62919,0.35623 -0.79722,0.6317 -0.16407,0.26636 -0.2003,0.55646 -0.10753,0.87045 0.069,0.23383 0.16373,0.3979 0.28422,0.4921 0.12047,0.09419 0.25487,0.14551 0.40311,0.15386 0.10279,0.01145 0.21053,0.0059 0.32317,-0.01661 2e-5,-7e-6 0.33783,-0.06793 0.33787,-0.06793 0.1106,-0.02944 0.21924,-0.05446 0.32593,-0.07507 0.10468,-0.02727 0.20449,-0.03773 0.2995,-0.03136 0.11478,0.0058 0.21794,0.03872 0.3095,0.09872 0.0896,0.05335 0.15773,0.1565 0.20455,0.30954 0.0346,0.11312 0.0414,0.2226 0.0203,0.32848 -0.0211,0.10587 -0.0612,0.20448 -0.12019,0.29579 -0.0591,0.09131 -0.13417,0.17411 -0.22529,0.24833 -0.0852,0.07181 -0.17546,0.1269 -0.27081,0.16525 -0.19069,0.0767 -0.37472,0.08681 -0.55168,0.03043 -0.17103,-0.05877 -0.30909,-0.18681 -0.41431,-0.38389 -0.0912,0.0735 -0.18252,0.14694 -0.2739,0.2203 0.16444,0.26332 0.35409,0.44201 0.56903,0.53577 0.22088,0.09138 0.46304,0.08445 0.72571,-0.02111 0.16715,-0.06717 0.31424,-0.15647 0.44113,-0.26771 0.12487,-0.1179 0.22661,-0.24533 0.30523,-0.38217 0.0766,-0.14349 0.12513,-0.29062 0.14571,-0.4413 0.0245,-0.15978 0.0131,-0.31612 -0.034,-0.46905 -0.0818,-0.26597 -0.19841,-0.4391 -0.34946,-0.51955 -0.1472,-0.08955 -0.31155,-0.12728 -0.49321,-0.1134 -0.10467,0.0051 -0.20924,0.02126 -0.31376,0.04851 -0.10653,0.02059 -0.21205,0.0444 -0.31658,0.07145 -0.10453,0.02705 -0.20711,0.04947 -0.30774,0.06728 -0.10064,0.01781 -0.19145,0.02413 -0.27239,0.01902 -0.10267,-0.01141 -0.19155,-0.04332 -0.2666,-0.09565 -0.077,-0.05902 -0.13535,-0.15532 -0.17501,-0.28886 -0.0476,-0.16025 -0.0224,-0.34179 0.0753,-0.54476 0.0956,-0.20968 0.2902,-0.37293 0.58398,-0.49097 0.30541,-0.12271 0.55664,-0.02282 0.75448,0.30088 0.081,-0.08149 0.1618,-0.16304 0.24258,-0.24464 z"
         id="path895" />
    </g>
    <text
       x="198.52702"
       y="51.186829"
       fill="#f2f2f2"
       font-family="sans-serif"
       font-size="10.583px"
       stroke-width="0.26458"
       style="line-height:1.25"
       xml:space="preserve"
       id="text901"><tspan
         x="198.52702"
         y="51.186829"
         fill="#f2f2f2"
         stroke-width="0.26458"
         id="tspan899" /></text>
  </g>
</svg>
